<?xml version="1.0" encoding="UTF-8"?>
<svg id="Layer_2" data-name="Layer 2" xmlns="http://www.w3.org/2000/svg" viewBox="0 0 279.9 447.87">
  <g id="Layer_4" data-name="Layer 4">
    <g>
      <path d="M160.93,193.69l.07,.17v56.42c.11,7.87,.39,15.74,.4,23.61,0,3.4,1.16,5.91,3.6,8.31l9.08,9.08,1.61,1.61c2.46,2.48,7.8,3.42,8.62,3.41,7.48,.03,5.64-.07,13.11,.16,12.96,.4,27.31,6.09,31.9,18.52,5.02,13.57,1.56,28.15-8.92,37.62-15.11,13.67-40.64,9.05-49.3-9.35-4.33-9.17-3.3-18.98-.18-29.71-7.96-7.81-11.95-11.92-19.3-19v11.41c0,5.46,.11,5.56-3.45,9.12l-.51,.51v10.95c0,5.46-.11,5.56,3.45,9.12l8.11,8.11,9.32,9.32v.04c8.54,8.54,8.59,8.53,8.92,20.74-.01,1.6,.83,4.11,1.6,5.64,1.2,2.33,3.05,4.44,3.79,6.89,1.99,6.55-1.01,13.22-6.78,16.09-5.51,2.75-13.56,.89-17.19-3.96-3.96-5.28-3.72-13.14,.93-17.92,2.03-2.09,4.54-3.58,7.76-5.9v-3.78c0-5.04-.15-5.04-4.01-8.9l-11.3-11.3-5.43-5.43c-3.71-3.91-5.77-6.1-6.92-8.36v49.66c-.05,4.57,1.38,9.53,4.82,12.77l20.62,17.85c7.36,6.93,8.19,17.46,1.36,24.67-7.15,7.57-18.22,7.67-25.42,.23-7.04-7.27-6.73-16.74,1.38-26.72l-11.04-10.81c-3.86-3.68-5.25-7.44-5.18-12.4v-82.35l-.02-5.39c0,9.94-.04,10.04-7.11,17.5-6.62,6.99-13.31,13.92-19.72,20.6,.54,3.33,1.3,5.82,1.27,8.3-.08,5.68-4.66,10.55-10.22,11.35-5.11,.73-11.07-3-12.73-7.96-1.75-5.21,.46-11.02,5.6-13.77,1.93-1.03,4.3-1.18,6.43-1.87,1.38-.45,3.02-.82,3.98-1.79,7.38-7.45,14.58-15.08,21.94-22.54,2.15-2.17,3-4.48,3-7.55l.05-14.89-15.67,15.67c-3.17,3.31-7.98,3.69-11.28,.61s-3.5-8.21-.1-11.46c3.32-3.17,7.65-3.03,12.21,.62l11.84-11.84h-.01c2.14-2.17,3-4.48,3-7.55v-8.65l-11.74,11.85c-3.46,3.56-7.1,5.24-12.43,5.11l-15.45-.16c-1.33,12.79-7.8,19.7-17.92,19.86-10.34,.17-18.1-7.73-17.81-18.13,.27-9.93,8.31-16.79,18.41-16.49l27.2,1.96c4.72,.14,9.24-2.35,12.44-5.62l17.22-17.23v-56.51l.07-.19c-21.44-8.41-36.63-29.3-36.63-53.72,0-31.86,25.83-57.68,57.68-57.68s57.68,25.82,57.68,57.68c0,24.45-15.22,45.35-36.7,53.74Zm39.77,158.86c13.09,.02,23.12-10.12,23.1-23.33-.02-12.76-10.12-23.02-22.73-23.13-13.14-.1-24.72,11.09-24.59,23.78,.11,12.15,11.34,22.66,24.22,22.68Zm-42.11,82.31c2.78-2.87,2.57-7.31-.47-10.08-3.02-2.74-7.46-2.6-10.25,.32-2.83,2.97-2.68,7.35,.35,10.08,2.85,2.58,7.7,2.42,10.37-.32Zm-58.8-130.63c1.25-1.36,1.19-3.36-.15-4.62-1.35-1.28-3.36-1.21-4.61,.16-1.17,1.28-1.1,3.47,.15,4.67,1.31,1.25,3.34,1.16,4.61-.21Zm-31.04-15.03c.09-4.04-2.95-7.28-7.02-7.47-4.11-.19-7.4,2.8-7.46,6.79-.05,3.83,3.27,7.37,7.1,7.57,4.08,.2,7.28-2.79,7.38-6.89Z"/>
      <path d="M158.94,29.29c16.03,2.74,30.9,8.87,43.85,17.63h0s26.28-15.42,26.28-15.42l17.73,17.73-15.18,25.9h0c8.8,12.44,15.14,26.74,18.3,42.19l.26,1.28,29.47,7.68v25.07l-29.04,7.59c-2.74,16.03-8.87,30.9-17.63,43.84h0s15.41,26.29,15.41,26.29l-17.73,17.72-25.91-15.17h-.01c-5.86,4.15-12.14,7.75-18.76,10.72v-33.66h0c.54-.36,1.07-.73,1.6-1.11,.25-.17,.5-.34,.74-.53,.46-.32,.91-.65,1.35-.99,.19-.14,.37-.28,.55-.42,.34-.26,.68-.52,1.02-.8,.35-.26,.68-.53,1.02-.81,.26-.21,.52-.43,.78-.65,.35-.28,.69-.57,1.03-.88,.35-.29,.69-.59,1.04-.92,.26-.22,.52-.45,.77-.69,.48-.43,.95-.87,1.41-1.33,.4-.37,.8-.76,1.19-1.17,.14-.12,.27-.26,.41-.41,.21-.2,.42-.42,.63-.64,.05-.05,.1-.1,.15-.16,.77-.8,1.52-1.61,2.24-2.44,.35-.38,.68-.75,1-1.14,.84-.99,1.67-2,2.46-3.03,.27-.33,.52-.67,.77-1.01,.34-.44,.67-.89,.99-1.34,.07-.09,.13-.18,.19-.26,.41-.58,.81-1.16,1.21-1.75,.09-.13,.19-.27,.27-.41,.47-.69,.92-1.39,1.36-2.1,.32-.52,.64-1.04,.95-1.57,.95-1.59,1.84-3.21,2.68-4.87l.27-.54c.6-1.19,1.16-2.41,1.7-3.64,.14-.32,.28-.64,.41-.96,.27-.63,.53-1.28,.79-1.92,.16-.41,.32-.83,.47-1.24,.03-.06,.05-.12,.07-.18,.18-.47,.35-.94,.51-1.42,.19-.54,.37-1.07,.55-1.61,.13-.38,.25-.76,.36-1.14l.06-.18,.3-.99c.47-1.58,.89-3.18,1.26-4.8,.07-.29,.13-.57,.2-.86,.06-.27,.11-.55,.17-.82,.02-.11,.05-.22,.07-.33,.17-.85,.34-1.71,.48-2.58,.1-.56,.19-1.12,.27-1.68,.1-.61,.18-1.21,.26-1.82,.07-.57,.14-1.14,.2-1.71,.07-.63,.13-1.27,.18-1.91,.02-.2,.03-.41,.05-.61,.07-.94,.13-1.88,.16-2.83,.03-.48,.04-.97,.05-1.46,.02-.61,.03-1.22,.03-1.83v-.24c0-.63-.01-1.27-.03-1.9-1-44.81-37.63-80.82-82.69-80.82-35.77,0-66.25,22.71-77.78,54.5-.44,1.2-.84,2.4-1.22,3.62-2.42,7.77-3.72,16.03-3.72,24.6,0,.6,0,1.19,.02,1.79,0,.11,0,.23,.01,.34,.01,.48,.03,.97,.05,1.45,.07,1.64,.18,3.27,.35,4.88,.03,.27,.06,.55,.09,.83,.16,1.43,.35,2.85,.59,4.26,.04,.26,.08,.51,.13,.76,.6,3.45,1.41,6.82,2.43,10.11,.07,.24,.14,.47,.22,.7,.41,1.3,.86,2.59,1.33,3.86,.14,.38,.28,.75,.43,1.12,.12,.31,.24,.61,.37,.92,.15,.37,.3,.74,.46,1.11,.19,.45,.38,.91,.59,1.36,.48,1.09,.99,2.17,1.52,3.24,.24,.5,.5,1,.76,1.5,.45,.87,.92,1.72,1.4,2.56,.13,.24,.27,.48,.42,.72,.2,.37,.42,.74,.65,1.11,.29,.49,.59,.98,.9,1.46,.2,.32,.4,.64,.61,.95,.33,.51,.67,1.02,1.01,1.53,.35,.51,.7,1.01,1.06,1.51,.03,.05,.07,.1,.11,.15,.12,.17,.24,.34,.37,.51,.18,.25,.37,.51,.56,.76,.13,.17,.25,.34,.38,.5,.57,.76,1.16,1.5,1.76,2.23,.2,.25,.4,.5,.61,.74,.42,.51,.84,1.01,1.28,1.5,.55,.63,1.11,1.26,1.69,1.87,.57,.62,1.15,1.22,1.74,1.82,.56,.56,1.12,1.12,1.7,1.67,.71,.68,1.44,1.35,2.17,2,.55,.49,1.1,.97,1.67,1.45,.02,.01,.03,.03,.05,.03,.59,.51,1.2,1,1.81,1.48,.79,.64,1.6,1.25,2.42,1.85,.57,.43,1.16,.85,1.75,1.26,.36,.26,.72,.5,1.09,.74h0v33.71c-5.84-2.63-11.41-5.76-16.67-9.32h-.01s-26.28,15.42-26.28,15.42l-17.72-17.72,15.17-25.91h.01c-9.05-12.78-15.49-27.52-18.56-43.46L.25,153.61v-25.07l29.05-7.59c2.73-16.02,8.86-30.9,17.62-43.84h0s-15.41-26.28-15.41-26.28l17.72-17.73,25.91,15.18h.01c12.43-8.8,26.72-15.14,42.18-18.3l1.27-.26L126.29,.25h25.07l7.58,29.04Z"/>
      <path d="M220.75,157.77c.06-.27,.11-.54,.17-.82-.06,.27-.11,.55-.17,.82Z"/>
      <path d="M218.99,164.42l.3-.99-.3,.99Z"/>
      <path d="M215.17,329.05c.08,7.55-6.72,14.11-14.54,14.03-7.37-.07-13.49-6.15-13.6-13.5-.12-7.51,6.2-13.92,13.76-13.96,7.72-.04,14.31,6.11,14.38,13.43Z"/>
      <path d="M214.07,176.71l-.27,.54,.27-.54Z"/>
      <path d="M209.55,379.65c.25,6.84-4.82,12.18-11.69,12.3-6.82,.11-12.25-5.08-12.29-11.76-.04-6.44,5.65-12.24,12.06-12.28,6.38-.04,11.67,5.17,11.92,11.74Zm-11.5,5.04c2.34-.14,4.46-2.74,4.22-5.17-.24-2.47-2.28-4.19-4.73-3.98-2.58,.22-4.74,2.49-4.65,4.88,.1,2.35,2.6,4.42,5.16,4.27Z"/>
      <path d="M91.52,318.33c.26,6.84-4.82,12.18-11.68,12.3-6.83,.11-12.26-5.08-12.3-11.76-.04-6.44,5.66-12.24,12.06-12.28,6.39-.04,11.67,5.16,11.92,11.74Zm-11.49,5.04c2.34-.14,4.46-2.74,4.22-5.17-.24-2.47-2.29-4.19-4.74-3.98-2.58,.22-4.74,2.49-4.64,4.88,.09,2.35,2.59,4.42,5.16,4.27Z"/>
      <path d="M73.67,189.44c.13,.17,.25,.34,.38,.5-.13-.16-.25-.33-.38-.5Z"/>
      <path d="M58.34,153.5c.04,.25,.08,.51,.13,.76-.05-.25-.09-.5-.13-.76Z"/>
      <path d="M57.66,148.41c.03,.28,.06,.55,.09,.83-.03-.28-.06-.56-.09-.83Z"/>
    </g>
  </g>
</svg>